<?xml version="1.0" encoding="utf-8"?>
<!-- Generator: Adobe Illustrator 16.0.0, SVG Export Plug-In . SVG Version: 6.00 Build 0)  -->
<!DOCTYPE svg PUBLIC "-//W3C//DTD SVG 1.1//EN" "http://www.w3.org/Graphics/SVG/1.1/DTD/svg11.dtd">
<svg version="1.1" id="Calque_1" xmlns="http://www.w3.org/2000/svg" xmlns:xlink="http://www.w3.org/1999/xlink" x="0px" y="0px"
	 width="170px" height="146.943px" viewBox="0 0 170 146.943" enable-background="new 0 0 170 146.943" xml:space="preserve">
<g>
	<g>
		<path fill="#FFFFFF" d="M46.14,146.852c-1.559,0-3.472-1.104-4.252-2.455L2.479,76.136c-0.78-1.351-0.78-3.56,0-4.91l39.41-68.26
			c0.78-1.35,2.693-2.455,4.252-2.455h78.82c1.56,0,3.473,1.104,4.252,2.455l39.411,68.26c0.779,1.35,0.779,3.559,0,4.91
			l-39.411,68.261c-0.779,1.351-2.692,2.455-4.252,2.455H46.14z"/>
	</g>
	<g>
		<path d="M40.133,92.951c-8.864,7.965-6.873,16.766,0.129,25.952c7.001,9.187,12.525,13.039,18.371,10.021
			c8.992-4.624,5.138-15.288,10.276-18.886c4.947-3.662,8.8-3.147,13.875-9.892c0,0,3.275-4.56,0.513-6.809
			c-2.183-1.413-4.817,4.563-9.12,1.67c-2.955-3.209,1.798-6.166,1.798-6.166l41.304-43.229c0,0,2.611-4.239,6.485-2.291
			c1.115-0.643,4.454-5.824,5.204-8.029c1.111-2.184,2.14-2.013,3.126-1.884c2.653,0.429,5.993-2.355,4.346-6.188
			c-1.562-2.205-3.661-1.734-4.775-1.263c-1.113,0.471-17.043,10.705-17.449,10.984c-1.969,1.968,2.249,3.575-0.257,5.994
			c-2.163,2.078-41.024,39.354-41.024,39.354c-1.712,0.345-4.667-1.113-1.648-5.245c2.292-4.133,4.753-4.625,2.912-7.065
			c-1.627-2.441-7.322,0.213-10.213,3.533C59.639,78.2,58.889,83.661,55.721,86.1C52.552,88.543,43.281,90.319,40.133,92.951z"/>
		<path d="M116.138,35.7c-0.615-0.364-1.097-1.296-1.74-1.019c-0.642,0.279-1.136,0.108-1.424-0.31s-0.14-1.039,0.568-1.446
			c0.193-0.856,0.803-1.273,1.53-0.995c0.428-0.492,1.123-0.568,1.595,0.203c0.471,0.771-0.792,1.413-0.61,1.767
			c0.182,0.353,0.187,1.143,0.45,1.562L116.138,35.7z"/>
		<path d="M120.667,32.906c-0.617-0.366-1.101-1.297-1.741-1.018c-0.643,0.278-1.135,0.107-1.423-0.311
			c-0.288-0.417-0.139-1.038,0.566-1.445c0.193-0.856,0.802-1.273,1.53-0.995c0.428-0.492,1.126-0.567,1.598,0.204
			c0.469,0.771-0.795,1.414-0.611,1.767c0.181,0.353,0.185,1.142,0.449,1.561L120.667,32.906z"/>
		<path d="M125.581,30.113c-0.619-0.365-1.1-1.296-1.742-1.018c-0.642,0.278-1.133,0.107-1.424-0.311
			c-0.288-0.417-0.138-1.038,0.566-1.445c0.196-0.856,0.805-1.274,1.533-0.996c0.428-0.492,1.123-0.566,1.595,0.204
			c0.47,0.771-0.792,1.413-0.608,1.766c0.179,0.353,0.182,1.143,0.449,1.562L125.581,30.113z"/>
		<path d="M130.451,27.277c-0.615-0.365-1.097-1.297-1.74-1.017c-0.642,0.277-1.135,0.107-1.423-0.312
			c-0.288-0.417-0.138-1.037,0.566-1.445c0.195-0.856,0.805-1.273,1.53-0.996c0.431-0.492,1.126-0.567,1.598,0.204
			c0.469,0.771-0.793,1.414-0.611,1.767c0.184,0.354,0.185,1.143,0.452,1.562L130.451,27.277z"/>
		<path d="M41.514,118.483c0.195,0.199-0.058,0.767-0.566,1.275c-0.509,0.51-1.08,0.762-1.274,0.568
			c-0.195-0.196,0.059-0.767,0.567-1.272C40.749,118.545,41.319,118.29,41.514,118.483z"/>
		<ellipse transform="matrix(0.7071 -0.7071 0.7071 0.7071 -27.5649 73.0775)" cx="74.43" cy="69.813" rx="1.771" ry="0.614"/>
	</g>
</g>
</svg>
