<?xml version="1.0" encoding="utf-8"?>
<!-- Generator: Adobe Illustrator 16.0.0, SVG Export Plug-In . SVG Version: 6.00 Build 0)  -->
<!DOCTYPE svg PUBLIC "-//W3C//DTD SVG 1.1//EN" "http://www.w3.org/Graphics/SVG/1.1/DTD/svg11.dtd">
<svg version="1.1" id="Calque_1" xmlns="http://www.w3.org/2000/svg" xmlns:xlink="http://www.w3.org/1999/xlink" x="0px" y="0px"
	 width="170px" height="146.943px" viewBox="0 0 170 146.943" enable-background="new 0 0 170 146.943" xml:space="preserve">
<g>
	<g>
		<path fill="#FFFFFF" d="M45.237,146.943c-1.559,0-3.472-1.104-4.252-2.455L1.417,75.958c-0.78-1.351-0.78-3.56,0-4.91
			L40.985,2.516c0.78-1.351,2.693-2.455,4.252-2.455h79.136c1.559,0,3.473,1.104,4.252,2.455l39.568,68.533
			c0.779,1.351,0.779,3.56,0,4.91l-39.568,68.53c-0.779,1.351-2.693,2.455-4.252,2.455H45.237z"/>
	</g>
	<path fill-rule="evenodd" clip-rule="evenodd" d="M42.428,82.972c-11.273,11.272-6.546,24.909,1.09,32.183
		c-0.794,0.796-0.204,1.976,0.274,2.453c0.477,0.479,1.886,0.796,2.454,0.274c11.001,10.271,25.82,9.093,33.275,1.637
		c10.316-10.729,4.159-22.161,9.545-26.457c5.389-4.295,10.5-1.094,12.273-7.908c0.682-4.093-6.203-1.98-7.637-3.275
		c-1.43-1.294-2.932-3.204,0.545-6.544c3.479-3.342,34.912-34.912,34.912-34.912c1.037,1.037,1.199,0.438,1.91-0.271l1.635,1.636
		c1.256,1.255,3.164-0.655,1.91-1.909c1.254,1.254,3.164-0.654,2.182-1.637c0.982,0.982,2.891-0.928,1.908-1.908
		c-0.982-0.982-1.908-1.91-1.908-1.91s0.818-1.254,1.908-1.908c-1.416-0.547-5.674-4.909-5.727-5.729
		c-0.873,0.873-1.855,1.856-1.855,1.856l-1.592-1.593c-0.98-0.982-3.041,0.598-1.676,1.961c-1.254-1.254-2.953,0.616-1.701,1.871
		c-1.199-1.2-3.213,0.596-1.904,1.906c1.311,1.308,1.637,1.635,1.637,1.635c-1.09,1.092-1.582,1.146-0.816,1.91L92.34,65.789
		c-8.564-8.565-15.165-4.365-17.184-2.456c-3.654,3.655-2.235,7.364-5.454,10.365C63.007,77.582,51.132,72.629,42.428,82.972z"/>
</g>
</svg>
