<?xml version="1.0" encoding="utf-8"?>
<!-- Generator: Adobe Illustrator 16.0.0, SVG Export Plug-In . SVG Version: 6.00 Build 0)  -->
<!DOCTYPE svg PUBLIC "-//W3C//DTD SVG 1.1//EN" "http://www.w3.org/Graphics/SVG/1.1/DTD/svg11.dtd">
<svg version="1.1" id="Calque_1" xmlns="http://www.w3.org/2000/svg" xmlns:xlink="http://www.w3.org/1999/xlink" x="0px" y="0px"
	 width="170px" height="146.943px" viewBox="0 0 170 146.943" enable-background="new 0 0 170 146.943" xml:space="preserve">
<g>
	<g>
		<path fill="#FFFFFF" d="M47.102,146.943c-1.559,0-3.472-1.104-4.252-2.455L3.977,77.159c-0.78-1.351-0.78-3.56,0-4.91L42.85,4.92
			c0.78-1.351,2.693-2.455,4.252-2.455h77.746c1.56,0,3.473,1.104,4.252,2.455l38.873,67.329c0.779,1.351,0.779,3.56,0,4.91
			L129.1,144.488c-0.779,1.351-2.692,2.455-4.252,2.455H47.102z"/>
	</g>
	<g>
		<rect x="27.544" y="55.298" fill="#FFFFFF" stroke="#000100" stroke-miterlimit="10" width="11.687" height="38.813"/>
		<rect x="39.231" y="55.298" fill="#FFFFFF" stroke="#000100" stroke-miterlimit="10" width="11.685" height="38.813"/>
		<rect x="50.917" y="55.298" fill="#FFFFFF" stroke="#000100" stroke-miterlimit="10" width="11.687" height="38.813"/>
		<rect x="47.161" y="55.298" fill="#000100" width="6.259" height="21.702"/>
		<rect x="35.474" y="55.298" fill="#000100" width="6.261" height="21.702"/>
		<rect x="62.603" y="55.298" fill="#FFFFFF" stroke="#000100" stroke-miterlimit="10" width="11.685" height="38.813"/>
		<rect x="74.288" y="55.298" fill="#FFFFFF" stroke="#000100" stroke-miterlimit="10" width="11.687" height="38.813"/>
		<rect x="97.659" y="55.298" fill="#FFFFFF" stroke="#000100" stroke-miterlimit="10" width="11.686" height="38.813"/>
		<rect x="70.533" y="55.298" fill="#000100" width="6.26" height="21.702"/>
		<rect x="109.345" y="55.298" fill="#FFFFFF" stroke="#000100" stroke-miterlimit="10" width="11.687" height="38.813"/>
		<rect x="132.718" y="55.298" fill="#FFFFFF" stroke="#000100" stroke-miterlimit="10" width="11.686" height="38.813"/>
		<rect x="121.031" y="55.298" fill="#FFFFFF" stroke="#000100" stroke-miterlimit="10" width="11.687" height="38.813"/>
		<rect x="128.961" y="55.298" fill="#000100" width="6.261" height="21.702"/>
		<rect x="85.975" y="55.298" fill="#FFFFFF" stroke="#000100" stroke-miterlimit="10" width="11.685" height="38.813"/>
		<rect x="93.904" y="55.298" fill="#000100" width="6.261" height="21.702"/>
		<rect x="82.218" y="55.298" fill="#000100" width="6.261" height="21.702"/>
		<rect x="117.274" y="55.298" fill="#000100" width="6.261" height="21.702"/>
	</g>
</g>
</svg>
